<svg xmlns="http://www.w3.org/2000/svg" viewBox="0 0 512 512" role="img" aria-labelledby="title desc">
  <title id="title">Catfish Coin logo</title>
  <desc id="desc">A cartoon catfish wrapped around a gold coin with Catfish Coin initials.</desc>
  <defs>
    <linearGradient id="coin" x1="126" y1="92" x2="388" y2="420" gradientUnits="userSpaceOnUse">
      <stop offset="0" stop-color="#FFE58A"/>
      <stop offset="0.5" stop-color="#F7B733"/>
      <stop offset="1" stop-color="#D98A12"/>
    </linearGradient>
    <linearGradient id="fish" x1="125" y1="148" x2="404" y2="338" gradientUnits="userSpaceOnUse">
      <stop offset="0" stop-color="#52C7D8"/>
      <stop offset="1" stop-color="#167C99"/>
    </linearGradient>
    <filter id="shadow" x="-20%" y="-20%" width="140%" height="140%">
      <feDropShadow dx="0" dy="12" stdDeviation="14" flood-color="#0D2B38" flood-opacity="0.22"/>
    </filter>
  </defs>

  <rect width="512" height="512" rx="112" fill="#EAF8FA"/>

  <g filter="url(#shadow)">
    <circle cx="256" cy="256" r="174" fill="url(#coin)" stroke="#8F5D10" stroke-width="14"/>
    <circle cx="256" cy="256" r="132" fill="none" stroke="#FFF1AF" stroke-width="12" opacity="0.9"/>
    <path d="M204 325c24 20 77 20 102 0" fill="none" stroke="#A06412" stroke-width="14" stroke-linecap="round"/>
    <text x="256" y="292" text-anchor="middle" font-family="Arial, Helvetica, sans-serif" font-size="116" font-weight="800" fill="#7B4A0B">CF</text>
  </g>

  <g filter="url(#shadow)">
    <path d="M117 247c34-71 122-108 203-82 57 18 99 60 116 112-36-28-75-37-119-27 20 20 38 47 48 78-48-39-96-48-143-26-53 25-105 5-105-55z" fill="url(#fish)" stroke="#0A4F67" stroke-width="10" stroke-linejoin="round"/>
    <path d="M357 184c32-35 76-47 114-34-18 24-47 43-86 56" fill="#1E96B1" stroke="#0A4F67" stroke-width="10" stroke-linejoin="round"/>
    <path d="M138 233c-31-13-64-7-88 16 25 16 57 21 91 9" fill="#1E96B1" stroke="#0A4F67" stroke-width="10" stroke-linejoin="round"/>
    <circle cx="194" cy="214" r="15" fill="#FFFFFF" stroke="#0A4F67" stroke-width="7"/>
    <circle cx="199" cy="215" r="6" fill="#12323D"/>
    <path d="M163 250c30 14 70 14 103-2" fill="none" stroke="#083B50" stroke-width="9" stroke-linecap="round"/>
    <path d="M181 268c-34 19-68 34-103 45" fill="none" stroke="#083B50" stroke-width="8" stroke-linecap="round"/>
    <path d="M178 286c-31 32-58 58-84 78" fill="none" stroke="#083B50" stroke-width="8" stroke-linecap="round"/>
    <path d="M230 272c38 15 77 29 117 42" fill="none" stroke="#083B50" stroke-width="8" stroke-linecap="round"/>
    <path d="M224 291c33 31 62 55 91 73" fill="none" stroke="#083B50" stroke-width="8" stroke-linecap="round"/>
    <path d="M245 171c-15-23-13-48 6-73 19 24 24 51 10 80" fill="#52C7D8" stroke="#0A4F67" stroke-width="9" stroke-linejoin="round"/>
  </g>
</svg>
